<svg width="19" height="13" viewBox="0 0 19 13" fill="none" xmlns="http://www.w3.org/2000/svg">
<path opacity="0.6" d="M18.5726 6.23675C18.5454 6.17256 17.8881 4.64587 16.4267 3.11594C14.4795 1.07737 12.0201 0 9.31306 0C6.60606 0 4.14664 1.07737 2.19943 3.11594C0.738053 4.64587 0.0776015 6.175 0.0535427 6.23675C0.0182409 6.31988 0 6.40984 0 6.50081C0 6.59179 0.0182409 6.68175 0.0535427 6.76487C0.0807058 6.82906 0.738053 8.35494 2.19943 9.88488C4.14664 11.9226 6.60606 13 9.31306 13C12.0201 13 14.4795 11.9226 16.4267 9.88488C17.8881 8.35494 18.5454 6.82906 18.5726 6.76487C18.6079 6.68175 18.6261 6.59179 18.6261 6.50081C18.6261 6.40984 18.6079 6.31988 18.5726 6.23675ZM9.31306 9.75C8.69908 9.75 8.09888 9.55939 7.58837 9.20228C7.07786 8.84516 6.67997 8.33758 6.44501 7.74372C6.21005 7.14986 6.14857 6.49639 6.26835 5.86596C6.38814 5.23552 6.6838 4.65642 7.11795 4.2019C7.5521 3.74738 8.10524 3.43785 8.70743 3.31245C9.30962 3.18705 9.9338 3.25141 10.501 3.49739C11.0683 3.74338 11.5531 4.15994 11.8942 4.6944C12.2353 5.22886 12.4174 5.85721 12.4174 6.5C12.4174 7.36195 12.0904 8.1886 11.5082 8.7981C10.926 9.40759 10.1364 9.75 9.31306 9.75Z" fill="white"/>
</svg>
